<svg id="Capa_1" enable-background="new 0 0 512 512" height="512" viewBox="0 0 512 512" width="512" xmlns="http://www.w3.org/2000/svg"><path d="m366.186 55.679h35.287c-.858 14.048-2.979 27.637-6.24 40.473h30.011c3.871-17.506 5.893-36.032 5.894-55.004 0-3.854-1.539-7.551-4.28-10.277-2.738-2.725-6.455-4.256-10.33-4.256h-48.639c-.334 9.806-.905 19.505-1.703 29.064z" fill="#fac600"/><path d="m165.34 191.9c-1.809-4.153-3.544-8.43-5.216-12.803-12.709-6.466-24.54-17.836-34.598-33.533-15.545-24.263-24.968-55.759-27.055-89.886h35.288c-.798-9.559-1.368-19.258-1.702-29.065h-48.637c-3.876 0-7.592 1.531-10.331 4.256-2.74 2.726-4.279 6.422-4.279 10.277 0 45.126 11.392 87.756 32.074 120.038 19.947 31.134 46.422 49.573 75.307 52.723-3.79-6.776-7.415-14.115-10.851-22.007z" fill="#ffdc48"/><path d="m231.91 325.275-30.113 69.869h96.353l-30.115-69.873c-1.881-4.366-1.881-9.374 0-13.742l25.107-58.253c-13.522 11.695-28.097 17.811-43.169 17.811-15.073 0-29.649-6.116-43.17-17.811l25.107 58.258c1.882 4.366 1.882 9.374 0 13.741z" fill="#fea613"/><path d="m231.91 325.275-30.113 69.869h20.628l30.114-69.869c1.882-4.367 1.882-9.375 0-13.741l-18.427-42.757c-9.441-2.757-18.595-7.964-27.309-15.501l25.107 58.258c1.882 4.366 1.882 9.374 0 13.741z" fill="#fb8801"/><path d="m353.414 481.322v-82.026c0-2.833-2.321-5.151-5.157-5.151h-196.566c-2.837 0-5.158 2.318-5.158 5.151v82.026z" fill="#d78878"/><path d="m182.634 481.322v-82.026c0-2.833 2.32-5.151 5.157-5.151h-36.1c-2.837 0-5.158 2.318-5.158 5.151v82.026z" fill="#ca6e59"/><path d="m382.508 506.849c0 2.833-2.321 5.151-5.158 5.151h-254.752c-2.837 0-5.157-2.318-5.157-5.151v-21.376c0-2.833 2.32-5.151 5.157-5.151h254.752c2.837 0 5.158 2.318 5.158 5.151z" fill="#d78878"/><path d="m153.54 506.849v-21.376c0-2.833 2.321-5.151 5.157-5.151h-36.1c-2.837 0-5.157 2.318-5.157 5.151v21.376c0 2.833 2.32 5.151 5.157 5.151h36.1c-2.836 0-5.157-2.318-5.157-5.151z" fill="#ca6e59"/><path d="m324.145 211.061c-.23-.161-.445-.348-.64-.556-.631-.679-1.169-1.704-1.37-2.61-.064-.285-.096-.577-.096-.868v-106.725c0-2.288 1.864-4.151 4.156-4.151h36.128c4.549-28.611 6.926-59.109 6.926-90.431 0-3.159-2.575-5.721-5.753-5.721h-227.047c-3.177 0-5.752 2.562-5.752 5.721 0 70.387 11.978 136.647 33.726 186.579 22.409 51.452 52.792 79.788 85.551 79.788 28.243 0 54.716-21.08 75.841-59.861z" fill="#ffdc48"/><path d="m200.523 192.3c-21.747-49.932-33.725-116.192-33.725-186.579 0-3.159 2.574-5.721 5.751-5.721h-36.1c-3.177 0-5.752 2.562-5.752 5.721 0 70.387 11.978 136.647 33.726 186.579 22.409 51.452 52.792 79.788 85.551 79.788 6.111 0 12.141-.989 18.05-2.927-25.768-8.453-49.273-35.009-67.501-76.861z" fill="#fac600"/><path d="m363.496 0h-227.047c-3.177 0-5.752 2.562-5.752 5.721 0 13.292.429 26.435 1.269 39.35h236.014c.841-12.915 1.268-26.058 1.268-39.35.001-3.159-2.574-5.721-5.752-5.721z" fill="#fea613"/><path d="m172.549 0h-36.1c-3.177 0-5.752 2.562-5.752 5.721 0 13.292.429 26.435 1.269 39.35h36.1c-.84-12.915-1.268-26.058-1.268-39.35 0-3.159 2.574-5.721 5.751-5.721z" fill="#fb8801"/><path d="m391.106 240.669-9.991 6.977c-.676.472-1.468.721-2.291.721s-1.615-.249-2.29-.72l-9.992-6.978c-29.671 5.704-52.083 31.663-52.083 62.843 0 35.358 28.817 64.022 64.365 64.022 35.547 0 64.366-28.664 64.366-64.022 0-31.18-22.413-57.139-52.084-62.843z" fill="#fea613"/><path d="m335.088 303.511c0-25.967 15.547-48.312 37.883-58.353l-6.429-4.49c-29.671 5.704-52.083 31.663-52.083 62.843 0 35.358 28.817 64.022 64.365 64.022 3.512 0 6.955-.29 10.314-.829-30.642-4.91-54.05-31.328-54.05-63.193z" fill="#fe9901"/><path d="m396.728 333.605c-.43 0-.862-.102-1.257-.308l-16.647-8.705-16.646 8.705c-.395.207-.827.308-1.258.308-.56 0-1.118-.173-1.59-.514-.833-.602-1.25-1.622-1.075-2.63l3.181-18.436-13.466-13.057c-.737-.715-1.003-1.784-.686-2.757.318-.975 1.167-1.685 2.186-1.832l18.609-2.69 8.321-16.774c.456-.917 1.395-1.498 2.425-1.498 1.027 0 1.969.581 2.424 1.498l8.324 16.774 18.609 2.69c1.019.147 1.864.857 2.184 1.831.316.974.052 2.042-.686 2.758l-13.465 13.057 3.18 18.436c.174 1.009-.243 2.029-1.076 2.631-.471.34-1.03.513-1.591.513z" fill="#fb8801"/><path d="m436.611 130.398v-30.096c0-2.833-2.321-5.151-5.158-5.151h-105.258c-2.836 0-5.156 2.318-5.156 5.151v30.096z" fill="#08a9f1"/><path d="m351.981 130.398v-30.096c0-2.833 2.32-5.151 5.157-5.151h-30.943c-2.836 0-5.156 2.318-5.156 5.151v30.096z" fill="#0290cf"/><path d="m356.266 129.398h-35.227v77.628c0 .365.04.729.119 1.085.241 1.085.86 2.263 1.615 3.075.241.259.509.492.799.694l32.693 22.831v-105.313z" fill="#fb2b3a"/><path d="m401.383 129.398v105.313l32.695-22.833c.29-.202.558-.435.798-.694.756-.813 1.376-1.991 1.616-3.074.079-.356.119-.72.119-1.085v-77.627z" fill="#fb2b3a"/><path d="m375.962 248.466c.859.6 1.86.9 2.862.9s2.003-.3 2.863-.901l20.695-14.453v-104.614h-47.117v104.615z" fill="#efe2dd"/><g fill="#6d3326"><path d="m283.849 433.48h-71.169c-4.143 0-7.5-3.358-7.5-7.5s3.357-7.5 7.5-7.5h71.169c4.143 0 7.5 3.358 7.5 7.5s-3.358 7.5-7.5 7.5z"/><path d="m273.682 458.204h-50.834c-4.143 0-7.5-3.358-7.5-7.5s3.357-7.5 7.5-7.5h50.834c4.143 0 7.5 3.358 7.5 7.5s-3.358 7.5-7.5 7.5z"/></g></svg>