<?xml version="1.0" encoding="iso-8859-1"?>
<!-- Generator: Adobe Illustrator 19.0.0, SVG Export Plug-In . SVG Version: 6.00 Build 0)  -->
<svg version="1.1" id="Capa_1" xmlns="http://www.w3.org/2000/svg" xmlns:xlink="http://www.w3.org/1999/xlink" x="0px" y="0px"
	 viewBox="0 0 58 58" style="enable-background:new 0 0 58 58;" xml:space="preserve">
<rect style="fill:#ECF0F1;" width="58" height="58"/>
<rect style="fill:#546A79;" width="58" height="12"/>
<circle style="fill:#ED7161;" cx="6" cy="6" r="3"/>
<circle style="fill:#F0C419;" cx="15" cy="6" r="3"/>
<circle style="fill:#4FBA6F;" cx="24" cy="6" r="3"/>
<g>
	<path style="fill:#BDC3C7;" d="M22,47h13c0.553,0,1-0.447,1-1s-0.447-1-1-1H22c-0.553,0-1,0.447-1,1S21.447,47,22,47z"/>
	<path style="fill:#BDC3C7;" d="M40,49H17c-0.553,0-1,0.447-1,1s0.447,1,1,1h23c0.553,0,1-0.447,1-1S40.553,49,40,49z"/>
</g>
<path style="fill:#FFFFFF;" d="M31.932,36.567c-0.447-0.224-0.73-0.681-0.73-1.181v-1.358c0.097-0.111,0.209-0.253,0.327-0.421
	c0.472-0.666,0.828-1.399,1.076-2.168c0.444-0.137,0.771-0.547,0.771-1.034v-1.449c0-0.319-0.142-0.604-0.362-0.803v-2.096
	c0,0,0.43-3.261-3.986-3.261s-3.986,3.261-3.986,3.261v2.096c-0.221,0.199-0.362,0.484-0.362,0.803v1.449
	c0,0.382,0.201,0.718,0.501,0.912c0.362,1.577,1.311,2.711,1.311,2.711v1.325c0,0.483-0.264,0.928-0.688,1.159l-3.233,1.763
	c-0.221,0.12-0.418,0.271-0.597,0.439C23.951,40.146,26.373,41,29,41c2.623,0,5.041-0.851,7.016-2.278
	c-0.186-0.165-0.393-0.309-0.622-0.424L31.932,36.567z"/>
<g>
	<path style="fill:#556080;" d="M41,29c0-6.627-5.373-12-12-12s-12,5.373-12,12c0,4,1.965,7.534,4.974,9.714
		c0.178-0.168,0.376-0.319,0.597-0.439l3.233-1.763c0.424-0.231,0.688-0.676,0.688-1.159v-1.325c0,0-0.949-1.135-1.311-2.711
		c-0.3-0.194-0.501-0.53-0.501-0.912v-1.449c0-0.319,0.142-0.604,0.362-0.803v-2.096c0,0-0.43-3.261,3.986-3.261
		s3.986,3.261,3.986,3.261v2.096c0.221,0.199,0.362,0.484,0.362,0.803v1.449c0,0.487-0.327,0.897-0.771,1.034
		c-0.247,0.769-0.604,1.502-1.076,2.168c-0.119,0.168-0.23,0.31-0.327,0.421v1.358c0,0.5,0.283,0.957,0.73,1.181l3.461,1.731
		c0.221,0.111,0.42,0.252,0.601,0.409C39.015,36.529,41,33.008,41,29z"/>
</g>
<g>
</g>
<g>
</g>
<g>
</g>
<g>
</g>
<g>
</g>
<g>
</g>
<g>
</g>
<g>
</g>
<g>
</g>
<g>
</g>
<g>
</g>
<g>
</g>
<g>
</g>
<g>
</g>
<g>
</g>
</svg>
